<svg width="24" height="24" viewBox="0 0 24 24" fill="none" xmlns="http://www.w3.org/2000/svg">
<mask id="mask0_53_7" style="mask-type:alpha" maskUnits="userSpaceOnUse" x="0" y="0" width="24" height="24">
<rect width="24" height="24" fill="#D9D9D9"/>
</mask>
<g mask="url(#mask0_53_7)">
<path d="M19 16C17.8 16 16.7417 15.625 15.825 14.875C14.9083 14.125 14.3333 13.1667 14.1 12H12.125C11.8417 12 11.6042 11.9042 11.4125 11.7125C11.2208 11.5208 11.125 11.2833 11.125 11C11.125 10.7167 11.2208 10.4792 11.4125 10.2875C11.6042 10.0958 11.8417 10 12.125 10H14.1C14.1833 9.63333 14.2958 9.28333 14.4375 8.95C14.5792 8.61667 14.7667 8.3 15 8H9.7C9.41667 8 9.17917 7.90417 8.9875 7.7125C8.79583 7.52083 8.7 7.28333 8.7 7C8.7 6.71667 8.79583 6.47917 8.9875 6.2875C9.17917 6.09583 9.41667 6 9.7 6H16.05L14.95 3H12C11.7167 3 11.4792 2.90417 11.2875 2.7125C11.0958 2.52083 11 2.28333 11 2C11 1.71667 11.0958 1.47917 11.2875 1.2875C11.4792 1.09583 11.7167 1 12 1H14.95C15.3833 1 15.7667 1.12083 16.1 1.3625C16.4333 1.60417 16.675 1.925 16.825 2.325L18.175 6H19C20.3833 6 21.5625 6.4875 22.5375 7.4625C23.5125 8.4375 24 9.61667 24 11C24 12.3833 23.5125 13.5625 22.5375 14.5375C21.5625 15.5125 20.3833 16 19 16ZM19 14C19.8333 14 20.5417 13.7083 21.125 13.125C21.7083 12.5417 22 11.8333 22 11C22 10.1667 21.7083 9.45833 21.125 8.875C20.5417 8.29167 19.8333 8 19 8H18.925L19.55 9.725C19.65 9.99167 19.6417 10.2542 19.525 10.5125C19.4083 10.7708 19.2167 10.9417 18.95 11.025C18.6833 11.1083 18.425 11.0917 18.175 10.975C17.925 10.8583 17.75 10.6667 17.65 10.4L17.05 8.725C16.7167 9.00833 16.4583 9.35 16.275 9.75C16.0917 10.15 16 10.5667 16 11C16 11.8333 16.2917 12.5417 16.875 13.125C17.4583 13.7083 18.1667 14 19 14ZM7 23C6.16667 23 5.45833 22.7083 4.875 22.125C4.29167 21.5417 4 20.8333 4 20H1C0.716667 20 0.479167 19.9042 0.2875 19.7125C0.0958333 19.5208 0 19.2833 0 19C0 18.7167 0.0958333 18.4792 0.2875 18.2875C0.479167 18.0958 0.716667 18 1 18H4.775C5.025 17.75 5.34167 17.5208 5.725 17.3125C6.10833 17.1042 6.53333 17 7 17C7.41667 17 7.81667 17.0833 8.2 17.25C8.58333 17.4167 8.925 17.6667 9.225 18H12V16H1C0.716667 16 0.479167 15.9042 0.2875 15.7125C0.0958333 15.5208 0 15.2833 0 15C0 14.7167 0.0958333 14.4792 0.2875 14.2875C0.479167 14.0958 0.716667 14 1 14H2V11H1C0.716667 11 0.479167 10.9042 0.2875 10.7125C0.0958333 10.5208 0 10.2833 0 10C0 9.71667 0.0958333 9.47917 0.2875 9.2875C0.479167 9.09583 0.716667 9 1 9H6.425C6.60833 9 6.77917 9.04167 6.9375 9.125C7.09583 9.20833 7.21667 9.325 7.3 9.475L10 14H12C12.55 14 13.0208 14.1958 13.4125 14.5875C13.8042 14.9792 14 15.45 14 16V18C14 18.55 13.8042 19.0208 13.4125 19.4125C13.0208 19.8042 12.55 20 12 20H10C10 20.8333 9.70833 21.5417 9.125 22.125C8.54167 22.7083 7.83333 23 7 23ZM4 14H7.675L5.875 11H4V14ZM7 21C7.28333 21 7.52083 20.9042 7.7125 20.7125C7.90417 20.5208 8 20.2833 8 20C8 19.7167 7.90417 19.4792 7.7125 19.2875C7.52083 19.0958 7.28333 19 7 19C6.71667 19 6.47917 19.0958 6.2875 19.2875C6.09583 19.4792 6 19.7167 6 20C6 20.2833 6.09583 20.5208 6.2875 20.7125C6.47917 20.9042 6.71667 21 7 21Z" fill="#8BA8D9"/>
</g>
</svg>
